<mxfile host="Electron" modified="2023-12-10T18:25:41.754Z" agent="Mozilla/5.0 (Macintosh; Intel Mac OS X 10_15_7) AppleWebKit/537.36 (KHTML, like Gecko) draw.io/21.5.1 Chrome/112.0.5615.204 Electron/24.6.0 Safari/537.36" etag="6xrqKBYLOJW0tUjmRVUI" version="21.5.1" type="device" pages="2">
  <diagram id="_M2vOzLNJd95OLEj7MYm" name="feign">
    <mxGraphModel dx="982" dy="659" grid="1" gridSize="10" guides="1" tooltips="1" connect="1" arrows="1" fold="1" page="1" pageScale="1" pageWidth="3300" pageHeight="4681" math="0" shadow="0">
      <root>
        <mxCell id="0" />
        <mxCell id="1" parent="0" />
        <mxCell id="AGtXbP1HPMAP7UNL4Vgl-21" style="edgeStyle=orthogonalEdgeStyle;shape=connector;rounded=0;sketch=0;orthogonalLoop=1;jettySize=auto;html=1;exitX=1;exitY=0.5;exitDx=0;exitDy=0;entryX=0;entryY=0.5;entryDx=0;entryDy=0;labelBackgroundColor=default;strokeColor=#B5739D;fontFamily=Helvetica;fontSize=10;fontColor=#1D3557;endArrow=classicThin;endFill=1;endSize=8;fillColor=#A8DADC;" edge="1" parent="1" source="AGtXbP1HPMAP7UNL4Vgl-7" target="AGtXbP1HPMAP7UNL4Vgl-11">
          <mxGeometry relative="1" as="geometry" />
        </mxCell>
        <mxCell id="AGtXbP1HPMAP7UNL4Vgl-7" value="&lt;p style=&quot;margin: 4px 0px 0px;&quot;&gt;FeignBuilder&lt;br&gt;&lt;/p&gt;" style="verticalAlign=middle;align=center;overflow=fill;fontSize=10;fontFamily=Helvetica;html=1;strokeColor=#6c8ebf;fillColor=#dae8fc;fontStyle=0" vertex="1" parent="1">
          <mxGeometry x="160" y="763" width="80" height="20" as="geometry" />
        </mxCell>
        <mxCell id="AGtXbP1HPMAP7UNL4Vgl-54" style="edgeStyle=orthogonalEdgeStyle;shape=connector;rounded=0;sketch=0;orthogonalLoop=1;jettySize=auto;html=1;exitX=0.5;exitY=0;exitDx=0;exitDy=0;entryX=0.5;entryY=1;entryDx=0;entryDy=0;labelBackgroundColor=default;strokeColor=#457B9D;fontFamily=Helvetica;fontSize=10;fontColor=#1D3557;endArrow=none;endFill=0;endSize=8;fillColor=#A8DADC;startArrow=diamondThin;startFill=1;startSize=9;" edge="1" parent="1" source="AGtXbP1HPMAP7UNL4Vgl-9" target="AGtXbP1HPMAP7UNL4Vgl-45">
          <mxGeometry relative="1" as="geometry" />
        </mxCell>
        <mxCell id="AGtXbP1HPMAP7UNL4Vgl-55" style="edgeStyle=orthogonalEdgeStyle;shape=connector;rounded=0;sketch=0;orthogonalLoop=1;jettySize=auto;html=1;exitX=0.75;exitY=0;exitDx=0;exitDy=0;entryX=0.5;entryY=1;entryDx=0;entryDy=0;labelBackgroundColor=default;strokeColor=#457B9D;fontFamily=Helvetica;fontSize=10;fontColor=#1D3557;startArrow=diamondThin;startFill=1;endArrow=none;endFill=0;startSize=9;endSize=8;fillColor=#A8DADC;" edge="1" parent="1" source="AGtXbP1HPMAP7UNL4Vgl-9" target="AGtXbP1HPMAP7UNL4Vgl-44">
          <mxGeometry relative="1" as="geometry">
            <Array as="points">
              <mxPoint x="375" y="640.5" />
              <mxPoint x="447" y="640.5" />
            </Array>
          </mxGeometry>
        </mxCell>
        <mxCell id="AGtXbP1HPMAP7UNL4Vgl-56" style="edgeStyle=orthogonalEdgeStyle;shape=connector;rounded=0;sketch=0;orthogonalLoop=1;jettySize=auto;html=1;exitX=0.25;exitY=0;exitDx=0;exitDy=0;entryX=0.5;entryY=1;entryDx=0;entryDy=0;labelBackgroundColor=default;strokeColor=#457B9D;fontFamily=Helvetica;fontSize=10;fontColor=#1D3557;startArrow=diamondThin;startFill=1;endArrow=none;endFill=0;startSize=9;endSize=8;fillColor=#A8DADC;" edge="1" parent="1" source="AGtXbP1HPMAP7UNL4Vgl-9" target="AGtXbP1HPMAP7UNL4Vgl-42">
          <mxGeometry relative="1" as="geometry">
            <Array as="points">
              <mxPoint x="305" y="640.5" />
              <mxPoint x="240" y="640.5" />
            </Array>
          </mxGeometry>
        </mxCell>
        <mxCell id="AGtXbP1HPMAP7UNL4Vgl-57" style="edgeStyle=orthogonalEdgeStyle;shape=connector;rounded=0;sketch=0;orthogonalLoop=1;jettySize=auto;html=1;exitX=0.914;exitY=0;exitDx=0;exitDy=0;entryX=0.5;entryY=1;entryDx=0;entryDy=0;labelBackgroundColor=default;strokeColor=#457B9D;fontFamily=Helvetica;fontSize=10;fontColor=#1D3557;startArrow=diamondThin;startFill=1;endArrow=none;endFill=0;startSize=9;endSize=8;fillColor=#A8DADC;exitPerimeter=0;" edge="1" parent="1" source="AGtXbP1HPMAP7UNL4Vgl-9" target="AGtXbP1HPMAP7UNL4Vgl-43">
          <mxGeometry relative="1" as="geometry">
            <Array as="points">
              <mxPoint x="398" y="650.5" />
              <mxPoint x="507" y="650.5" />
            </Array>
          </mxGeometry>
        </mxCell>
        <mxCell id="AGtXbP1HPMAP7UNL4Vgl-58" style="edgeStyle=orthogonalEdgeStyle;shape=connector;rounded=0;sketch=0;orthogonalLoop=1;jettySize=auto;html=1;exitX=0.136;exitY=0;exitDx=0;exitDy=0;entryX=0.5;entryY=1;entryDx=0;entryDy=0;labelBackgroundColor=default;strokeColor=#457B9D;fontFamily=Helvetica;fontSize=10;fontColor=#1D3557;startArrow=diamondThin;startFill=1;endArrow=none;endFill=0;startSize=9;endSize=8;fillColor=#A8DADC;exitPerimeter=0;" edge="1" parent="1" source="AGtXbP1HPMAP7UNL4Vgl-9" target="AGtXbP1HPMAP7UNL4Vgl-41">
          <mxGeometry relative="1" as="geometry">
            <Array as="points">
              <mxPoint x="290" y="650.5" />
              <mxPoint x="185" y="650.5" />
            </Array>
          </mxGeometry>
        </mxCell>
        <mxCell id="AGtXbP1HPMAP7UNL4Vgl-9" value="&lt;p style=&quot;margin: 4px 0px 0px;&quot;&gt;FeignParseHandlersByName&lt;br&gt;&lt;/p&gt;" style="verticalAlign=middle;align=center;overflow=fill;fontSize=10;fontFamily=Helvetica;html=1;strokeColor=#6c8ebf;fillColor=#dae8fc;fontStyle=0" vertex="1" parent="1">
          <mxGeometry x="270" y="670.5" width="140" height="20" as="geometry" />
        </mxCell>
        <mxCell id="AGtXbP1HPMAP7UNL4Vgl-10" value="&lt;p style=&quot;margin: 4px 0px 0px;&quot;&gt;InvocationHandlerFactory&lt;br&gt;&lt;/p&gt;" style="verticalAlign=middle;align=center;overflow=fill;fontSize=10;fontFamily=Helvetica;html=1;strokeColor=#82b366;fillColor=#d5e8d4;fontStyle=0" vertex="1" parent="1">
          <mxGeometry x="425" y="670.5" width="120" height="20" as="geometry" />
        </mxCell>
        <mxCell id="AGtXbP1HPMAP7UNL4Vgl-13" style="edgeStyle=orthogonalEdgeStyle;shape=connector;rounded=0;sketch=0;orthogonalLoop=1;jettySize=auto;html=1;exitX=0.5;exitY=0;exitDx=0;exitDy=0;entryX=0.5;entryY=1;entryDx=0;entryDy=0;labelBackgroundColor=default;strokeColor=#457B9D;fontFamily=Helvetica;fontSize=10;fontColor=#1D3557;endArrow=none;endFill=0;endSize=8;fillColor=#A8DADC;startArrow=diamondThin;startFill=1;startSize=9;" edge="1" parent="1" source="AGtXbP1HPMAP7UNL4Vgl-11" target="AGtXbP1HPMAP7UNL4Vgl-9">
          <mxGeometry relative="1" as="geometry" />
        </mxCell>
        <mxCell id="AGtXbP1HPMAP7UNL4Vgl-14" style="edgeStyle=orthogonalEdgeStyle;shape=connector;rounded=0;sketch=0;orthogonalLoop=1;jettySize=auto;html=1;exitX=0.75;exitY=0;exitDx=0;exitDy=0;entryX=0.25;entryY=1;entryDx=0;entryDy=0;labelBackgroundColor=default;strokeColor=#457B9D;fontFamily=Helvetica;fontSize=10;fontColor=#1D3557;endArrow=none;endFill=0;endSize=8;fillColor=#A8DADC;startArrow=diamondThin;startFill=1;startSize=9;" edge="1" parent="1" source="AGtXbP1HPMAP7UNL4Vgl-11" target="AGtXbP1HPMAP7UNL4Vgl-10">
          <mxGeometry relative="1" as="geometry">
            <Array as="points">
              <mxPoint x="360" y="710" />
              <mxPoint x="465" y="710" />
            </Array>
          </mxGeometry>
        </mxCell>
        <mxCell id="AGtXbP1HPMAP7UNL4Vgl-68" style="edgeStyle=orthogonalEdgeStyle;shape=connector;rounded=0;sketch=0;orthogonalLoop=1;jettySize=auto;html=1;exitX=1;exitY=0.5;exitDx=0;exitDy=0;entryX=0;entryY=0.5;entryDx=0;entryDy=0;labelBackgroundColor=default;strokeColor=#457B9D;fontFamily=Helvetica;fontSize=10;fontColor=#1D3557;startArrow=none;startFill=0;endArrow=open;endFill=0;startSize=9;endSize=6;fillColor=#A8DADC;dashed=1;" edge="1" parent="1" source="AGtXbP1HPMAP7UNL4Vgl-11" target="AGtXbP1HPMAP7UNL4Vgl-67">
          <mxGeometry relative="1" as="geometry" />
        </mxCell>
        <mxCell id="AGtXbP1HPMAP7UNL4Vgl-11" value="&lt;p style=&quot;margin: 4px 0px 0px;&quot;&gt;FeignImplement&lt;br&gt;&lt;/p&gt;" style="verticalAlign=middle;align=center;overflow=fill;fontSize=10;fontFamily=Helvetica;html=1;strokeColor=#6c8ebf;fillColor=#dae8fc;fontStyle=0" vertex="1" parent="1">
          <mxGeometry x="300" y="763" width="80" height="20" as="geometry" />
        </mxCell>
        <mxCell id="AGtXbP1HPMAP7UNL4Vgl-63" style="edgeStyle=orthogonalEdgeStyle;shape=connector;rounded=0;sketch=0;orthogonalLoop=1;jettySize=auto;html=1;exitX=1;exitY=0.5;exitDx=0;exitDy=0;entryX=0;entryY=0.5;entryDx=0;entryDy=0;labelBackgroundColor=default;strokeColor=#B5739D;fontFamily=Helvetica;fontSize=10;fontColor=#1D3557;startArrow=none;startFill=0;endArrow=classic;endFill=1;startSize=6;endSize=6;fillColor=#A8DADC;" edge="1" parent="1" source="AGtXbP1HPMAP7UNL4Vgl-17" target="AGtXbP1HPMAP7UNL4Vgl-60">
          <mxGeometry relative="1" as="geometry" />
        </mxCell>
        <mxCell id="AGtXbP1HPMAP7UNL4Vgl-70" style="edgeStyle=orthogonalEdgeStyle;shape=connector;rounded=0;sketch=0;orthogonalLoop=1;jettySize=auto;html=1;exitX=0.5;exitY=0;exitDx=0;exitDy=0;entryX=0.5;entryY=1;entryDx=0;entryDy=0;labelBackgroundColor=default;strokeColor=#457B9D;fontFamily=Helvetica;fontSize=10;fontColor=#1D3557;startArrow=none;startFill=0;endArrow=block;endFill=0;startSize=9;endSize=8;fillColor=#A8DADC;dashed=1;" edge="1" parent="1" source="AGtXbP1HPMAP7UNL4Vgl-17" target="AGtXbP1HPMAP7UNL4Vgl-10">
          <mxGeometry relative="1" as="geometry" />
        </mxCell>
        <mxCell id="AGtXbP1HPMAP7UNL4Vgl-17" value="&lt;p style=&quot;margin: 4px 0px 0px;&quot;&gt;FeignInvocationHandlerFactory&lt;br&gt;&lt;/p&gt;" style="verticalAlign=middle;align=center;overflow=fill;fontSize=10;fontFamily=Helvetica;html=1;strokeColor=#6c8ebf;fillColor=#dae8fc;fontStyle=0" vertex="1" parent="1">
          <mxGeometry x="410" y="720" width="150" height="20" as="geometry" />
        </mxCell>
        <mxCell id="AGtXbP1HPMAP7UNL4Vgl-22" value="build" style="text;html=1;align=center;verticalAlign=middle;resizable=0;points=[];autosize=1;strokeColor=none;fillColor=none;fontSize=10;fontFamily=Helvetica;fontColor=#1D3557;" vertex="1" parent="1">
          <mxGeometry x="250" y="750" width="40" height="30" as="geometry" />
        </mxCell>
        <mxCell id="AGtXbP1HPMAP7UNL4Vgl-41" value="&lt;p style=&quot;margin: 4px 0px 0px;&quot;&gt;Contract&lt;br&gt;&lt;/p&gt;" style="verticalAlign=middle;align=center;overflow=fill;fontSize=10;fontFamily=Helvetica;html=1;strokeColor=#82b366;fillColor=#d5e8d4;fontStyle=0" vertex="1" parent="1">
          <mxGeometry x="160" y="610.5" width="50" height="20" as="geometry" />
        </mxCell>
        <mxCell id="AGtXbP1HPMAP7UNL4Vgl-42" value="&lt;p style=&quot;margin: 4px 0px 0px;&quot;&gt;Options&lt;br&gt;&lt;/p&gt;" style="verticalAlign=middle;align=center;overflow=fill;fontSize=10;fontFamily=Helvetica;html=1;strokeColor=#6c8ebf;fillColor=#dae8fc;fontStyle=0" vertex="1" parent="1">
          <mxGeometry x="220" y="610.5" width="40" height="20" as="geometry" />
        </mxCell>
        <mxCell id="AGtXbP1HPMAP7UNL4Vgl-43" value="&lt;p style=&quot;margin: 4px 0px 0px;&quot;&gt;Decoder&lt;br&gt;&lt;/p&gt;" style="verticalAlign=middle;align=center;overflow=fill;fontSize=10;fontFamily=Helvetica;html=1;strokeColor=#82b366;fillColor=#d5e8d4;fontStyle=0" vertex="1" parent="1">
          <mxGeometry x="482.02" y="610.5" width="50" height="20" as="geometry" />
        </mxCell>
        <mxCell id="AGtXbP1HPMAP7UNL4Vgl-44" value="&lt;p style=&quot;margin: 4px 0px 0px;&quot;&gt;Encoder&lt;br&gt;&lt;/p&gt;" style="verticalAlign=middle;align=center;overflow=fill;fontSize=10;fontFamily=Helvetica;html=1;strokeColor=#82b366;fillColor=#d5e8d4;fontStyle=0" vertex="1" parent="1">
          <mxGeometry x="422.02" y="610.5" width="50" height="20" as="geometry" />
        </mxCell>
        <mxCell id="AGtXbP1HPMAP7UNL4Vgl-59" style="edgeStyle=orthogonalEdgeStyle;shape=connector;rounded=0;sketch=0;orthogonalLoop=1;jettySize=auto;html=1;exitX=0.75;exitY=0;exitDx=0;exitDy=0;labelBackgroundColor=default;strokeColor=#457B9D;fontFamily=Helvetica;fontSize=10;fontColor=#1D3557;startArrow=diamondThin;startFill=1;endArrow=none;endFill=0;startSize=9;endSize=8;fillColor=#A8DADC;" edge="1" parent="1" source="AGtXbP1HPMAP7UNL4Vgl-45" target="AGtXbP1HPMAP7UNL4Vgl-50">
          <mxGeometry relative="1" as="geometry" />
        </mxCell>
        <mxCell id="AGtXbP1HPMAP7UNL4Vgl-45" value="&lt;p style=&quot;margin: 4px 0px 0px;&quot;&gt;FeignMethodHandlerFactory&lt;br&gt;&lt;/p&gt;" style="verticalAlign=middle;align=center;overflow=fill;fontSize=10;fontFamily=Helvetica;html=1;strokeColor=#6c8ebf;fillColor=#dae8fc;fontStyle=0" vertex="1" parent="1">
          <mxGeometry x="270" y="610.5" width="140" height="20" as="geometry" />
        </mxCell>
        <mxCell id="AGtXbP1HPMAP7UNL4Vgl-46" style="edgeStyle=orthogonalEdgeStyle;shape=connector;rounded=0;sketch=0;orthogonalLoop=1;jettySize=auto;html=1;exitX=0.5;exitY=0;exitDx=0;exitDy=0;entryX=0.5;entryY=1;entryDx=0;entryDy=0;labelBackgroundColor=default;strokeColor=#457B9D;fontFamily=Helvetica;fontSize=10;fontColor=#1D3557;endArrow=none;endFill=0;endSize=8;fillColor=#A8DADC;startArrow=diamondThin;startFill=0;startSize=9;" edge="1" parent="1" target="AGtXbP1HPMAP7UNL4Vgl-51">
          <mxGeometry relative="1" as="geometry">
            <mxPoint x="340" y="610" as="sourcePoint" />
          </mxGeometry>
        </mxCell>
        <mxCell id="AGtXbP1HPMAP7UNL4Vgl-47" style="edgeStyle=orthogonalEdgeStyle;shape=connector;rounded=0;sketch=0;orthogonalLoop=1;jettySize=auto;html=1;exitX=0.25;exitY=0;exitDx=0;exitDy=0;entryX=0.5;entryY=1;entryDx=0;entryDy=0;labelBackgroundColor=default;strokeColor=#457B9D;fontFamily=Helvetica;fontSize=10;fontColor=#1D3557;endArrow=none;endFill=0;endSize=8;fillColor=#A8DADC;startArrow=diamondThin;startFill=1;startSize=9;" edge="1" parent="1" target="AGtXbP1HPMAP7UNL4Vgl-49" source="AGtXbP1HPMAP7UNL4Vgl-45">
          <mxGeometry relative="1" as="geometry">
            <mxPoint x="303" y="610" as="sourcePoint" />
          </mxGeometry>
        </mxCell>
        <mxCell id="AGtXbP1HPMAP7UNL4Vgl-49" value="&lt;p style=&quot;margin: 4px 0px 0px;&quot;&gt;Client&lt;br&gt;&lt;/p&gt;" style="verticalAlign=middle;align=center;overflow=fill;fontSize=10;fontFamily=Helvetica;html=1;strokeColor=#82b366;fillColor=#d5e8d4;fontStyle=0" vertex="1" parent="1">
          <mxGeometry x="230" y="560" width="40" height="20" as="geometry" />
        </mxCell>
        <mxCell id="AGtXbP1HPMAP7UNL4Vgl-50" value="&lt;p style=&quot;margin: 4px 0px 0px;&quot;&gt;Retryer&lt;br&gt;&lt;/p&gt;" style="verticalAlign=middle;align=center;overflow=fill;fontSize=10;fontFamily=Helvetica;html=1;strokeColor=#82b366;fillColor=#d5e8d4;fontStyle=0" vertex="1" parent="1">
          <mxGeometry x="410" y="560" width="40" height="20" as="geometry" />
        </mxCell>
        <mxCell id="AGtXbP1HPMAP7UNL4Vgl-51" value="&lt;p style=&quot;margin: 4px 0px 0px;&quot;&gt;RequestInterceptor&lt;br&gt;&lt;/p&gt;" style="verticalAlign=middle;align=center;overflow=fill;fontSize=10;fontFamily=Helvetica;html=1;strokeColor=#82b366;fillColor=#d5e8d4;fontStyle=0" vertex="1" parent="1">
          <mxGeometry x="295" y="560" width="90" height="20" as="geometry" />
        </mxCell>
        <mxCell id="AGtXbP1HPMAP7UNL4Vgl-90" style="edgeStyle=orthogonalEdgeStyle;shape=connector;rounded=0;sketch=0;orthogonalLoop=1;jettySize=auto;html=1;exitX=0.5;exitY=0;exitDx=0;exitDy=0;entryX=0.5;entryY=1;entryDx=0;entryDy=0;labelBackgroundColor=default;strokeColor=#457B9D;fontFamily=Helvetica;fontSize=10;fontColor=#1D3557;startArrow=none;startFill=0;endArrow=block;endFill=0;startSize=9;endSize=8;fillColor=#A8DADC;dashed=1;" edge="1" parent="1" source="AGtXbP1HPMAP7UNL4Vgl-60" target="AGtXbP1HPMAP7UNL4Vgl-89">
          <mxGeometry relative="1" as="geometry" />
        </mxCell>
        <mxCell id="AGtXbP1HPMAP7UNL4Vgl-106" style="edgeStyle=orthogonalEdgeStyle;shape=connector;rounded=0;sketch=0;orthogonalLoop=1;jettySize=auto;html=1;exitX=0.75;exitY=0;exitDx=0;exitDy=0;entryX=0.5;entryY=1;entryDx=0;entryDy=0;labelBackgroundColor=default;strokeColor=#457B9D;fontFamily=Helvetica;fontSize=10;fontColor=#1D3557;startArrow=diamondThin;startFill=1;endArrow=none;endFill=0;startSize=9;endSize=8;fillColor=#A8DADC;" edge="1" parent="1" source="AGtXbP1HPMAP7UNL4Vgl-60" target="AGtXbP1HPMAP7UNL4Vgl-105">
          <mxGeometry relative="1" as="geometry" />
        </mxCell>
        <mxCell id="AGtXbP1HPMAP7UNL4Vgl-110" style="edgeStyle=orthogonalEdgeStyle;shape=connector;rounded=0;sketch=0;orthogonalLoop=1;jettySize=auto;html=1;exitX=0.25;exitY=0;exitDx=0;exitDy=0;entryX=0.5;entryY=1;entryDx=0;entryDy=0;labelBackgroundColor=default;strokeColor=#457B9D;fontFamily=Helvetica;fontSize=10;fontColor=#1D3557;startArrow=diamondThin;startFill=1;endArrow=none;endFill=0;startSize=9;endSize=8;fillColor=#A8DADC;" edge="1" parent="1" source="AGtXbP1HPMAP7UNL4Vgl-60" target="AGtXbP1HPMAP7UNL4Vgl-108">
          <mxGeometry relative="1" as="geometry" />
        </mxCell>
        <mxCell id="AGtXbP1HPMAP7UNL4Vgl-60" value="&lt;p style=&quot;margin: 4px 0px 0px;&quot;&gt;FeignInvocationHandler&lt;br&gt;&lt;/p&gt;" style="verticalAlign=middle;align=center;overflow=fill;fontSize=10;fontFamily=Helvetica;html=1;strokeColor=#6c8ebf;fillColor=#dae8fc;fontStyle=0" vertex="1" parent="1">
          <mxGeometry x="669.48" y="720" width="120" height="20" as="geometry" />
        </mxCell>
        <mxCell id="AGtXbP1HPMAP7UNL4Vgl-64" value="create" style="text;html=1;align=center;verticalAlign=middle;resizable=0;points=[];autosize=1;strokeColor=none;fillColor=none;fontSize=10;fontFamily=Helvetica;fontColor=#1D3557;" vertex="1" parent="1">
          <mxGeometry x="571.48" y="707" width="50" height="30" as="geometry" />
        </mxCell>
        <mxCell id="AGtXbP1HPMAP7UNL4Vgl-65" value="&lt;p style=&quot;margin: 4px 0px 0px;&quot;&gt;Feign&lt;br&gt;&lt;/p&gt;" style="verticalAlign=middle;align=center;overflow=fill;fontSize=10;fontFamily=Helvetica;html=1;strokeColor=#6c8ebf;fillColor=#dae8fc;fontStyle=0" vertex="1" parent="1">
          <mxGeometry x="210" y="670.5" width="40" height="19.5" as="geometry" />
        </mxCell>
        <mxCell id="AGtXbP1HPMAP7UNL4Vgl-66" style="edgeStyle=orthogonalEdgeStyle;shape=connector;rounded=0;sketch=0;orthogonalLoop=1;jettySize=auto;html=1;exitX=0.25;exitY=0;exitDx=0;exitDy=0;entryX=0.5;entryY=1;entryDx=0;entryDy=0;labelBackgroundColor=default;strokeColor=#457B9D;fontFamily=Helvetica;fontSize=10;fontColor=#1D3557;endArrow=block;endFill=0;endSize=8;fillColor=#A8DADC;" edge="1" parent="1" target="AGtXbP1HPMAP7UNL4Vgl-65" source="AGtXbP1HPMAP7UNL4Vgl-11">
          <mxGeometry relative="1" as="geometry">
            <mxPoint x="230" y="730.5" as="sourcePoint" />
            <Array as="points">
              <mxPoint x="320" y="710" />
              <mxPoint x="230" y="710" />
            </Array>
          </mxGeometry>
        </mxCell>
        <mxCell id="AGtXbP1HPMAP7UNL4Vgl-74" style="edgeStyle=orthogonalEdgeStyle;shape=connector;rounded=0;sketch=0;orthogonalLoop=1;jettySize=auto;html=1;exitX=1;exitY=0.5;exitDx=0;exitDy=0;entryX=0;entryY=0.5;entryDx=0;entryDy=0;labelBackgroundColor=default;strokeColor=#B5739D;fontFamily=Helvetica;fontSize=10;fontColor=#1D3557;startArrow=none;startFill=0;endArrow=classic;endFill=1;startSize=10;endSize=6;fillColor=#A8DADC;" edge="1" parent="1" source="AGtXbP1HPMAP7UNL4Vgl-67" target="AGtXbP1HPMAP7UNL4Vgl-73">
          <mxGeometry relative="1" as="geometry" />
        </mxCell>
        <mxCell id="AGtXbP1HPMAP7UNL4Vgl-77" style="edgeStyle=orthogonalEdgeStyle;shape=connector;rounded=0;sketch=0;orthogonalLoop=1;jettySize=auto;html=1;exitX=0.5;exitY=0;exitDx=0;exitDy=0;entryX=0.5;entryY=1;entryDx=0;entryDy=0;labelBackgroundColor=default;strokeColor=#457B9D;fontFamily=Helvetica;fontSize=10;fontColor=#1D3557;startArrow=none;startFill=0;endArrow=open;endFill=0;startSize=9;endSize=6;fillColor=#A8DADC;" edge="1" parent="1" source="AGtXbP1HPMAP7UNL4Vgl-67" target="AGtXbP1HPMAP7UNL4Vgl-60">
          <mxGeometry relative="1" as="geometry" />
        </mxCell>
        <mxCell id="AGtXbP1HPMAP7UNL4Vgl-67" value="&lt;p style=&quot;margin: 4px 0px 0px;&quot;&gt;java.lang.reflect.Proxy&lt;br&gt;&lt;/p&gt;" style="verticalAlign=middle;align=center;overflow=fill;fontSize=10;fontFamily=Helvetica;html=1;strokeColor=#6c8ebf;fillColor=#dae8fc;fontStyle=0" vertex="1" parent="1">
          <mxGeometry x="675.49" y="763" width="107.98" height="20" as="geometry" />
        </mxCell>
        <mxCell id="AGtXbP1HPMAP7UNL4Vgl-71" value="newInstance" style="text;html=1;align=center;verticalAlign=middle;resizable=0;points=[];autosize=1;strokeColor=none;fillColor=none;fontSize=10;fontFamily=Helvetica;fontColor=#1D3557;" vertex="1" parent="1">
          <mxGeometry x="491.48" y="750" width="80" height="30" as="geometry" />
        </mxCell>
        <mxCell id="AGtXbP1HPMAP7UNL4Vgl-72" value="newProxyInstance" style="text;html=1;align=center;verticalAlign=middle;resizable=0;points=[];autosize=1;strokeColor=none;fillColor=none;fontSize=10;fontFamily=Helvetica;fontColor=#1D3557;" vertex="1" parent="1">
          <mxGeometry x="783.47" y="750" width="110" height="30" as="geometry" />
        </mxCell>
        <mxCell id="AGtXbP1HPMAP7UNL4Vgl-73" value="&lt;p style=&quot;margin: 4px 0px 0px;&quot;&gt;&amp;lt;T&amp;gt; proxy&lt;br&gt;&lt;/p&gt;" style="verticalAlign=middle;align=center;overflow=fill;fontSize=10;fontFamily=Helvetica;html=1;strokeColor=#6c8ebf;fillColor=#dae8fc;fontStyle=0" vertex="1" parent="1">
          <mxGeometry x="900" y="763" width="60" height="20" as="geometry" />
        </mxCell>
        <mxCell id="AGtXbP1HPMAP7UNL4Vgl-89" value="&lt;p style=&quot;margin: 4px 0px 0px;&quot;&gt;java.lang.reflect.InvocationHandler&lt;br&gt;&lt;/p&gt;" style="verticalAlign=middle;align=center;overflow=fill;fontSize=10;fontFamily=Helvetica;html=1;fillColor=#d5e8d4;strokeColor=#82b366;fontStyle=0" vertex="1" parent="1">
          <mxGeometry x="649.48" y="560" width="160" height="20" as="geometry" />
        </mxCell>
        <mxCell id="AGtXbP1HPMAP7UNL4Vgl-93" value="&lt;p style=&quot;margin: 4px 0px 0px;&quot;&gt;MethodHandler&lt;br&gt;&lt;/p&gt;" style="verticalAlign=middle;align=center;overflow=fill;fontSize=10;fontFamily=Helvetica;html=1;fillColor=#d5e8d4;strokeColor=#82b366;fontStyle=0" vertex="1" parent="1">
          <mxGeometry x="440" y="1040" width="80" height="20" as="geometry" />
        </mxCell>
        <mxCell id="AGtXbP1HPMAP7UNL4Vgl-102" style="edgeStyle=orthogonalEdgeStyle;shape=connector;rounded=0;sketch=0;orthogonalLoop=1;jettySize=auto;html=1;exitX=0.5;exitY=0;exitDx=0;exitDy=0;entryX=0.75;entryY=1;entryDx=0;entryDy=0;labelBackgroundColor=default;strokeColor=#457B9D;fontFamily=Helvetica;fontSize=10;fontColor=#1D3557;startArrow=none;startFill=0;endArrow=block;endFill=0;startSize=9;endSize=8;fillColor=#A8DADC;dashed=1;" edge="1" parent="1" source="AGtXbP1HPMAP7UNL4Vgl-95" target="AGtXbP1HPMAP7UNL4Vgl-93">
          <mxGeometry relative="1" as="geometry">
            <Array as="points">
              <mxPoint x="562" y="1080" />
              <mxPoint x="500" y="1080" />
            </Array>
          </mxGeometry>
        </mxCell>
        <mxCell id="AGtXbP1HPMAP7UNL4Vgl-95" value="&lt;p style=&quot;margin: 4px 0px 0px;&quot;&gt;FeignSynchronousMethodHandler&lt;br&gt;&lt;/p&gt;" style="verticalAlign=middle;align=center;overflow=fill;fontSize=10;fontFamily=Helvetica;html=1;strokeColor=#6c8ebf;fillColor=#dae8fc;fontStyle=0" vertex="1" parent="1">
          <mxGeometry x="482.02000000000004" y="1100" width="160" height="20" as="geometry" />
        </mxCell>
        <mxCell id="AGtXbP1HPMAP7UNL4Vgl-96" style="edgeStyle=orthogonalEdgeStyle;shape=connector;rounded=0;sketch=0;orthogonalLoop=1;jettySize=auto;html=1;exitX=0.5;exitY=0;exitDx=0;exitDy=0;entryX=0.5;entryY=1;entryDx=0;entryDy=0;labelBackgroundColor=default;strokeColor=#457B9D;fontFamily=Helvetica;fontSize=10;fontColor=#1D3557;startArrow=none;startFill=0;endArrow=block;endFill=0;startSize=9;endSize=8;fillColor=#A8DADC;dashed=1;" edge="1" parent="1" source="AGtXbP1HPMAP7UNL4Vgl-97" target="AGtXbP1HPMAP7UNL4Vgl-98">
          <mxGeometry relative="1" as="geometry" />
        </mxCell>
        <mxCell id="AGtXbP1HPMAP7UNL4Vgl-99" style="edgeStyle=orthogonalEdgeStyle;shape=connector;rounded=0;sketch=0;orthogonalLoop=1;jettySize=auto;html=1;exitX=0.75;exitY=0;exitDx=0;exitDy=0;entryX=0.25;entryY=1;entryDx=0;entryDy=0;labelBackgroundColor=default;strokeColor=#457B9D;fontFamily=Helvetica;fontSize=10;fontColor=#1D3557;startArrow=diamondThin;startFill=1;endArrow=none;endFill=0;startSize=9;endSize=8;fillColor=#A8DADC;" edge="1" parent="1" source="AGtXbP1HPMAP7UNL4Vgl-97" target="AGtXbP1HPMAP7UNL4Vgl-93">
          <mxGeometry relative="1" as="geometry">
            <Array as="points">
              <mxPoint x="360" y="1080" />
              <mxPoint x="460" y="1080" />
            </Array>
          </mxGeometry>
        </mxCell>
        <mxCell id="AGtXbP1HPMAP7UNL4Vgl-101" style="edgeStyle=orthogonalEdgeStyle;shape=connector;rounded=0;sketch=0;orthogonalLoop=1;jettySize=auto;html=1;exitX=0.25;exitY=0;exitDx=0;exitDy=0;entryX=0.5;entryY=1;entryDx=0;entryDy=0;labelBackgroundColor=default;strokeColor=#457B9D;fontFamily=Helvetica;fontSize=10;fontColor=#1D3557;startArrow=diamondThin;startFill=1;endArrow=none;endFill=0;startSize=9;endSize=8;fillColor=#A8DADC;" edge="1" parent="1" source="AGtXbP1HPMAP7UNL4Vgl-97" target="AGtXbP1HPMAP7UNL4Vgl-100">
          <mxGeometry relative="1" as="geometry" />
        </mxCell>
        <mxCell id="AGtXbP1HPMAP7UNL4Vgl-97" value="&lt;p style=&quot;margin: 4px 0px 0px;&quot;&gt;FeignInvocationHandler&lt;br&gt;&lt;/p&gt;" style="verticalAlign=middle;align=center;overflow=fill;fontSize=10;fontFamily=Helvetica;html=1;strokeColor=#6c8ebf;fillColor=#dae8fc;fontStyle=0" vertex="1" parent="1">
          <mxGeometry x="270" y="1100" width="120" height="20" as="geometry" />
        </mxCell>
        <mxCell id="AGtXbP1HPMAP7UNL4Vgl-98" value="&lt;p style=&quot;margin: 4px 0px 0px;&quot;&gt;java.lang.reflect.InvocationHandler&lt;br&gt;&lt;/p&gt;" style="verticalAlign=middle;align=center;overflow=fill;fontSize=10;fontFamily=Helvetica;html=1;fillColor=#d5e8d4;strokeColor=#82b366;fontStyle=0" vertex="1" parent="1">
          <mxGeometry x="250.00000000000003" y="1040" width="160" height="20" as="geometry" />
        </mxCell>
        <mxCell id="AGtXbP1HPMAP7UNL4Vgl-100" value="&lt;p style=&quot;margin: 4px 0px 0px;&quot;&gt;Target&lt;br&gt;&lt;/p&gt;" style="verticalAlign=middle;align=center;overflow=fill;fontSize=10;fontFamily=Helvetica;html=1;fillColor=#d5e8d4;strokeColor=#82b366;fontStyle=0" vertex="1" parent="1">
          <mxGeometry x="160" y="1040" width="60" height="20" as="geometry" />
        </mxCell>
        <mxCell id="AGtXbP1HPMAP7UNL4Vgl-103" value="&lt;p style=&quot;margin: 4px 0px 0px;&quot;&gt;FeignTarget&lt;br&gt;&lt;/p&gt;" style="verticalAlign=middle;align=center;overflow=fill;fontSize=10;fontFamily=Helvetica;html=1;strokeColor=#6c8ebf;fillColor=#dae8fc;fontStyle=0" vertex="1" parent="1">
          <mxGeometry x="80" y="1150" width="70" height="20" as="geometry" />
        </mxCell>
        <mxCell id="AGtXbP1HPMAP7UNL4Vgl-107" style="edgeStyle=orthogonalEdgeStyle;shape=connector;rounded=0;sketch=0;orthogonalLoop=1;jettySize=auto;html=1;exitX=0.25;exitY=0;exitDx=0;exitDy=0;entryX=0.75;entryY=1;entryDx=0;entryDy=0;labelBackgroundColor=default;strokeColor=#457B9D;fontFamily=Helvetica;fontSize=10;fontColor=#1D3557;startArrow=none;startFill=0;endArrow=block;endFill=0;startSize=9;endSize=8;fillColor=#A8DADC;dashed=1;" edge="1" parent="1" source="AGtXbP1HPMAP7UNL4Vgl-104" target="AGtXbP1HPMAP7UNL4Vgl-105">
          <mxGeometry relative="1" as="geometry">
            <Array as="points">
              <mxPoint x="840" y="670" />
              <mxPoint x="810" y="670" />
            </Array>
          </mxGeometry>
        </mxCell>
        <mxCell id="AGtXbP1HPMAP7UNL4Vgl-104" value="&lt;p style=&quot;margin: 4px 0px 0px;&quot;&gt;FeignSynchronousMethodHandler&lt;br&gt;&lt;/p&gt;" style="verticalAlign=middle;align=center;overflow=fill;fontSize=10;fontFamily=Helvetica;html=1;strokeColor=#6c8ebf;fillColor=#dae8fc;fontStyle=0" vertex="1" parent="1">
          <mxGeometry x="800" y="681" width="160" height="20" as="geometry" />
        </mxCell>
        <mxCell id="AGtXbP1HPMAP7UNL4Vgl-105" value="&lt;p style=&quot;margin: 4px 0px 0px;&quot;&gt;MethodHandler&lt;br&gt;&lt;/p&gt;" style="verticalAlign=middle;align=center;overflow=fill;fontSize=10;fontFamily=Helvetica;html=1;fillColor=#d5e8d4;strokeColor=#82b366;fontStyle=0" vertex="1" parent="1">
          <mxGeometry x="750" y="620" width="80" height="20" as="geometry" />
        </mxCell>
        <mxCell id="AGtXbP1HPMAP7UNL4Vgl-108" value="&lt;p style=&quot;margin: 4px 0px 0px;&quot;&gt;Target&lt;br&gt;&lt;/p&gt;" style="verticalAlign=middle;align=center;overflow=fill;fontSize=10;fontFamily=Helvetica;html=1;fillColor=#d5e8d4;strokeColor=#82b366;fontStyle=0" vertex="1" parent="1">
          <mxGeometry x="649.48" y="620" width="60" height="20" as="geometry" />
        </mxCell>
        <mxCell id="AGtXbP1HPMAP7UNL4Vgl-111" style="edgeStyle=orthogonalEdgeStyle;shape=connector;rounded=0;sketch=0;orthogonalLoop=1;jettySize=auto;html=1;exitX=0.5;exitY=0;exitDx=0;exitDy=0;entryX=0.25;entryY=1;entryDx=0;entryDy=0;labelBackgroundColor=default;strokeColor=#457B9D;fontFamily=Helvetica;fontSize=10;fontColor=#1D3557;startArrow=none;startFill=0;endArrow=block;endFill=0;startSize=9;endSize=8;fillColor=#A8DADC;dashed=1;" edge="1" parent="1" source="AGtXbP1HPMAP7UNL4Vgl-109" target="AGtXbP1HPMAP7UNL4Vgl-108">
          <mxGeometry relative="1" as="geometry">
            <Array as="points">
              <mxPoint x="625" y="670" />
              <mxPoint x="665" y="670" />
            </Array>
          </mxGeometry>
        </mxCell>
        <mxCell id="AGtXbP1HPMAP7UNL4Vgl-113" style="edgeStyle=orthogonalEdgeStyle;shape=connector;rounded=0;sketch=0;orthogonalLoop=1;jettySize=auto;html=1;exitX=0.25;exitY=0;exitDx=0;exitDy=0;entryX=0.5;entryY=1;entryDx=0;entryDy=0;labelBackgroundColor=default;strokeColor=#457B9D;fontFamily=Helvetica;fontSize=10;fontColor=#1D3557;startArrow=diamondThin;startFill=1;endArrow=none;endFill=0;startSize=9;endSize=8;fillColor=#A8DADC;" edge="1" parent="1" source="AGtXbP1HPMAP7UNL4Vgl-109" target="AGtXbP1HPMAP7UNL4Vgl-112">
          <mxGeometry relative="1" as="geometry" />
        </mxCell>
        <mxCell id="AGtXbP1HPMAP7UNL4Vgl-109" value="&lt;p style=&quot;margin: 4px 0px 0px;&quot;&gt;FeignTarget&lt;br&gt;&lt;/p&gt;" style="verticalAlign=middle;align=center;overflow=fill;fontSize=10;fontFamily=Helvetica;html=1;strokeColor=#6c8ebf;fillColor=#dae8fc;fontStyle=0" vertex="1" parent="1">
          <mxGeometry x="589.48" y="680.5" width="70" height="20" as="geometry" />
        </mxCell>
        <mxCell id="AGtXbP1HPMAP7UNL4Vgl-112" value="&lt;p style=&quot;margin: 4px 0px 0px;&quot;&gt;Class&amp;lt;T&amp;gt;&lt;br&gt;&lt;/p&gt;" style="verticalAlign=middle;align=center;overflow=fill;fontSize=10;fontFamily=Helvetica;html=1;strokeColor=#6c8ebf;fillColor=#dae8fc;fontStyle=0" vertex="1" parent="1">
          <mxGeometry x="577" y="620" width="60" height="20" as="geometry" />
        </mxCell>
        <mxCell id="AGtXbP1HPMAP7UNL4Vgl-115" value="&lt;p style=&quot;margin: 4px 0px 0px;&quot;&gt;FeignTarget&lt;br&gt;&lt;/p&gt;" style="verticalAlign=middle;align=center;overflow=fill;fontSize=10;fontFamily=Helvetica;html=1;strokeColor=#6c8ebf;fillColor=#dae8fc;fontStyle=0" vertex="1" parent="1">
          <mxGeometry x="694.48" y="990" width="70" height="20" as="geometry" />
        </mxCell>
        <mxCell id="s_WjLZ0JeOONCGwKOALm-1" value="&lt;p style=&quot;margin: 4px 0px 0px;&quot;&gt;Subject&lt;br&gt;&lt;/p&gt;" style="verticalAlign=middle;align=center;overflow=fill;fontSize=10;fontFamily=Helvetica;html=1;fillColor=#d5e8d4;strokeColor=#82b366;fontStyle=0" vertex="1" parent="1">
          <mxGeometry x="560" y="1220" width="60" height="20" as="geometry" />
        </mxCell>
        <mxCell id="s_WjLZ0JeOONCGwKOALm-6" style="edgeStyle=orthogonalEdgeStyle;shape=connector;rounded=0;sketch=0;orthogonalLoop=1;jettySize=auto;html=1;exitX=0.5;exitY=0;exitDx=0;exitDy=0;entryX=0.5;entryY=1;entryDx=0;entryDy=0;labelBackgroundColor=default;strokeColor=#457B9D;fontFamily=Helvetica;fontSize=10;fontColor=#1D3557;startArrow=none;startFill=0;endArrow=block;endFill=0;startSize=9;endSize=8;fillColor=#A8DADC;dashed=1;" edge="1" parent="1" source="s_WjLZ0JeOONCGwKOALm-2" target="s_WjLZ0JeOONCGwKOALm-1">
          <mxGeometry relative="1" as="geometry" />
        </mxCell>
        <mxCell id="s_WjLZ0JeOONCGwKOALm-2" value="&lt;p style=&quot;margin: 4px 0px 0px;&quot;&gt;RealSubject&lt;br&gt;&lt;/p&gt;" style="verticalAlign=middle;align=center;overflow=fill;fontSize=10;fontFamily=Helvetica;html=1;strokeColor=#6c8ebf;fillColor=#dae8fc;fontStyle=0" vertex="1" parent="1">
          <mxGeometry x="555" y="1280" width="70" height="20" as="geometry" />
        </mxCell>
        <mxCell id="s_WjLZ0JeOONCGwKOALm-7" style="edgeStyle=orthogonalEdgeStyle;shape=connector;rounded=0;sketch=0;orthogonalLoop=1;jettySize=auto;html=1;exitX=0.5;exitY=0;exitDx=0;exitDy=0;entryX=0.25;entryY=1;entryDx=0;entryDy=0;dashed=1;labelBackgroundColor=default;strokeColor=#457B9D;fontFamily=Helvetica;fontSize=10;fontColor=#1D3557;startArrow=none;startFill=0;endArrow=block;endFill=0;startSize=9;endSize=8;fillColor=#A8DADC;" edge="1" parent="1" source="s_WjLZ0JeOONCGwKOALm-3" target="s_WjLZ0JeOONCGwKOALm-1">
          <mxGeometry relative="1" as="geometry" />
        </mxCell>
        <mxCell id="s_WjLZ0JeOONCGwKOALm-8" style="edgeStyle=orthogonalEdgeStyle;shape=connector;rounded=0;sketch=0;orthogonalLoop=1;jettySize=auto;html=1;exitX=1;exitY=0.5;exitDx=0;exitDy=0;entryX=0;entryY=0.5;entryDx=0;entryDy=0;labelBackgroundColor=default;strokeColor=#457B9D;fontFamily=Helvetica;fontSize=10;fontColor=#1D3557;startArrow=diamondThin;startFill=1;endArrow=none;endFill=0;startSize=9;endSize=8;fillColor=#A8DADC;" edge="1" parent="1" source="s_WjLZ0JeOONCGwKOALm-3" target="s_WjLZ0JeOONCGwKOALm-2">
          <mxGeometry relative="1" as="geometry" />
        </mxCell>
        <mxCell id="s_WjLZ0JeOONCGwKOALm-3" value="&lt;p style=&quot;margin: 4px 0px 0px;&quot;&gt;Proxy&lt;br&gt;&lt;/p&gt;" style="verticalAlign=middle;align=center;overflow=fill;fontSize=10;fontFamily=Helvetica;html=1;strokeColor=#6c8ebf;fillColor=#dae8fc;fontStyle=0" vertex="1" parent="1">
          <mxGeometry x="420" y="1280" width="60" height="20" as="geometry" />
        </mxCell>
        <mxCell id="s_WjLZ0JeOONCGwKOALm-9" style="edgeStyle=orthogonalEdgeStyle;shape=connector;rounded=0;sketch=0;orthogonalLoop=1;jettySize=auto;html=1;exitX=1;exitY=0.5;exitDx=0;exitDy=0;entryX=0;entryY=0.5;entryDx=0;entryDy=0;dashed=1;labelBackgroundColor=default;strokeColor=#457B9D;fontFamily=Helvetica;fontSize=10;fontColor=#1D3557;startArrow=none;startFill=0;endArrow=open;endFill=0;startSize=9;endSize=8;fillColor=#A8DADC;" edge="1" parent="1" source="s_WjLZ0JeOONCGwKOALm-4" target="s_WjLZ0JeOONCGwKOALm-3">
          <mxGeometry relative="1" as="geometry" />
        </mxCell>
        <mxCell id="s_WjLZ0JeOONCGwKOALm-4" value="&lt;p style=&quot;margin: 4px 0px 0px;&quot;&gt;Client&lt;br&gt;&lt;/p&gt;" style="verticalAlign=middle;align=center;overflow=fill;fontSize=10;fontFamily=Helvetica;html=1;strokeColor=#6c8ebf;fillColor=#dae8fc;fontStyle=0" vertex="1" parent="1">
          <mxGeometry x="290" y="1280" width="60" height="20" as="geometry" />
        </mxCell>
      </root>
    </mxGraphModel>
  </diagram>
  <diagram id="UEJkdiw_lD-j0ltRS9nj" name="uml">
    <mxGraphModel dx="982" dy="659" grid="0" gridSize="10" guides="1" tooltips="1" connect="1" arrows="1" fold="1" page="1" pageScale="1" pageWidth="3300" pageHeight="4681" math="0" shadow="0">
      <root>
        <mxCell id="0" />
        <mxCell id="1" parent="0" />
        <mxCell id="qWAhWYrdUnWkXjUP7EAH-5" style="edgeStyle=orthogonalEdgeStyle;shape=connector;rounded=0;sketch=0;orthogonalLoop=1;jettySize=auto;html=1;exitX=1;exitY=0.5;exitDx=0;exitDy=0;entryX=0;entryY=0.5;entryDx=0;entryDy=0;dashed=1;labelBackgroundColor=default;strokeColor=#457B9D;fontFamily=Helvetica;fontSize=10;fontColor=#1D3557;startArrow=none;startFill=0;endArrow=open;endFill=0;startSize=9;endSize=8;fillColor=#A8DADC;" edge="1" parent="1" source="qWAhWYrdUnWkXjUP7EAH-3" target="qWAhWYrdUnWkXjUP7EAH-4">
          <mxGeometry relative="1" as="geometry" />
        </mxCell>
        <mxCell id="qWAhWYrdUnWkXjUP7EAH-3" value="&lt;p style=&quot;margin:0px;margin-top:4px;text-align:center;&quot;&gt;&lt;b&gt;Student&lt;/b&gt;&lt;/p&gt;&lt;hr size=&quot;1&quot;&gt;&lt;div style=&quot;height:2px;&quot;&gt;&lt;/div&gt;" style="verticalAlign=top;align=left;overflow=fill;fontSize=12;fontFamily=Helvetica;html=1;whiteSpace=wrap;fillColor=#dae8fc;strokeColor=#6c8ebf;" vertex="1" parent="1">
          <mxGeometry x="280" y="200" width="80" height="40" as="geometry" />
        </mxCell>
        <mxCell id="qWAhWYrdUnWkXjUP7EAH-4" value="&lt;p style=&quot;margin:0px;margin-top:4px;text-align:center;&quot;&gt;&lt;b&gt;Computer&lt;/b&gt;&lt;/p&gt;&lt;hr size=&quot;1&quot;&gt;&lt;div style=&quot;height:2px;&quot;&gt;&lt;/div&gt;" style="verticalAlign=top;align=left;overflow=fill;fontSize=12;fontFamily=Helvetica;html=1;whiteSpace=wrap;fillColor=#dae8fc;strokeColor=#6c8ebf;" vertex="1" parent="1">
          <mxGeometry x="460" y="200" width="80" height="40" as="geometry" />
        </mxCell>
        <mxCell id="qWAhWYrdUnWkXjUP7EAH-6" style="edgeStyle=orthogonalEdgeStyle;shape=connector;rounded=0;sketch=0;orthogonalLoop=1;jettySize=auto;html=1;exitX=1;exitY=0.5;exitDx=0;exitDy=0;entryX=0;entryY=0.5;entryDx=0;entryDy=0;labelBackgroundColor=default;strokeColor=#457B9D;fontFamily=Helvetica;fontSize=10;fontColor=#1D3557;startArrow=none;startFill=0;endArrow=open;endFill=0;startSize=9;endSize=8;fillColor=#A8DADC;" edge="1" parent="1" source="qWAhWYrdUnWkXjUP7EAH-7" target="qWAhWYrdUnWkXjUP7EAH-8">
          <mxGeometry relative="1" as="geometry" />
        </mxCell>
        <mxCell id="qWAhWYrdUnWkXjUP7EAH-7" value="&lt;p style=&quot;margin:0px;margin-top:4px;text-align:center;&quot;&gt;&lt;b&gt;Student&lt;/b&gt;&lt;/p&gt;&lt;hr size=&quot;1&quot;&gt;&lt;div style=&quot;height:2px;&quot;&gt;&lt;/div&gt;" style="verticalAlign=top;align=left;overflow=fill;fontSize=12;fontFamily=Helvetica;html=1;whiteSpace=wrap;fillColor=#dae8fc;strokeColor=#6c8ebf;" vertex="1" parent="1">
          <mxGeometry x="280" y="320" width="80" height="40" as="geometry" />
        </mxCell>
        <mxCell id="qWAhWYrdUnWkXjUP7EAH-8" value="&lt;p style=&quot;margin:0px;margin-top:4px;text-align:center;&quot;&gt;&lt;b&gt;Teacher&lt;/b&gt;&lt;/p&gt;&lt;hr size=&quot;1&quot;&gt;&lt;div style=&quot;height:2px;&quot;&gt;&lt;/div&gt;" style="verticalAlign=top;align=left;overflow=fill;fontSize=12;fontFamily=Helvetica;html=1;whiteSpace=wrap;fillColor=#dae8fc;strokeColor=#6c8ebf;" vertex="1" parent="1">
          <mxGeometry x="460" y="320" width="80" height="40" as="geometry" />
        </mxCell>
        <mxCell id="qWAhWYrdUnWkXjUP7EAH-9" style="edgeStyle=orthogonalEdgeStyle;shape=connector;rounded=0;sketch=0;orthogonalLoop=1;jettySize=auto;html=1;exitX=1;exitY=0.5;exitDx=0;exitDy=0;entryX=0;entryY=0.5;entryDx=0;entryDy=0;labelBackgroundColor=default;strokeColor=#457B9D;fontFamily=Helvetica;fontSize=10;fontColor=#1D3557;startArrow=diamondThin;startFill=0;endArrow=none;endFill=0;startSize=10;endSize=8;fillColor=#A8DADC;" edge="1" parent="1" source="qWAhWYrdUnWkXjUP7EAH-10" target="qWAhWYrdUnWkXjUP7EAH-11">
          <mxGeometry relative="1" as="geometry" />
        </mxCell>
        <mxCell id="qWAhWYrdUnWkXjUP7EAH-10" value="&lt;p style=&quot;margin:0px;margin-top:4px;text-align:center;&quot;&gt;&lt;b&gt;Classes&lt;/b&gt;&lt;/p&gt;&lt;hr size=&quot;1&quot;&gt;&lt;div style=&quot;height:2px;&quot;&gt;&lt;/div&gt;" style="verticalAlign=top;align=left;overflow=fill;fontSize=12;fontFamily=Helvetica;html=1;whiteSpace=wrap;fillColor=#dae8fc;strokeColor=#6c8ebf;" vertex="1" parent="1">
          <mxGeometry x="280" y="440" width="80" height="40" as="geometry" />
        </mxCell>
        <mxCell id="qWAhWYrdUnWkXjUP7EAH-11" value="&lt;p style=&quot;margin:0px;margin-top:4px;text-align:center;&quot;&gt;&lt;b&gt;Student&lt;/b&gt;&lt;/p&gt;&lt;hr size=&quot;1&quot;&gt;&lt;div style=&quot;height:2px;&quot;&gt;&lt;/div&gt;" style="verticalAlign=top;align=left;overflow=fill;fontSize=12;fontFamily=Helvetica;html=1;whiteSpace=wrap;fillColor=#dae8fc;strokeColor=#6c8ebf;" vertex="1" parent="1">
          <mxGeometry x="460" y="440" width="80" height="40" as="geometry" />
        </mxCell>
        <mxCell id="qWAhWYrdUnWkXjUP7EAH-12" style="edgeStyle=orthogonalEdgeStyle;shape=connector;rounded=0;sketch=0;orthogonalLoop=1;jettySize=auto;html=1;exitX=1;exitY=0.5;exitDx=0;exitDy=0;entryX=0;entryY=0.5;entryDx=0;entryDy=0;labelBackgroundColor=default;strokeColor=#457B9D;fontFamily=Helvetica;fontSize=10;fontColor=#1D3557;startArrow=diamondThin;startFill=1;endArrow=none;endFill=0;startSize=10;endSize=8;fillColor=#A8DADC;" edge="1" parent="1" source="qWAhWYrdUnWkXjUP7EAH-13" target="qWAhWYrdUnWkXjUP7EAH-14">
          <mxGeometry relative="1" as="geometry" />
        </mxCell>
        <mxCell id="qWAhWYrdUnWkXjUP7EAH-13" value="&lt;p style=&quot;margin:0px;margin-top:4px;text-align:center;&quot;&gt;&lt;b&gt;Student&lt;/b&gt;&lt;/p&gt;&lt;hr size=&quot;1&quot;&gt;&lt;div style=&quot;height:2px;&quot;&gt;&lt;/div&gt;" style="verticalAlign=top;align=left;overflow=fill;fontSize=12;fontFamily=Helvetica;html=1;whiteSpace=wrap;fillColor=#dae8fc;strokeColor=#6c8ebf;" vertex="1" parent="1">
          <mxGeometry x="280" y="560" width="80" height="40" as="geometry" />
        </mxCell>
        <mxCell id="qWAhWYrdUnWkXjUP7EAH-14" value="&lt;p style=&quot;margin:0px;margin-top:4px;text-align:center;&quot;&gt;&lt;b&gt;Heart&lt;/b&gt;&lt;/p&gt;&lt;hr size=&quot;1&quot;&gt;&lt;div style=&quot;height:2px;&quot;&gt;&lt;/div&gt;" style="verticalAlign=top;align=left;overflow=fill;fontSize=12;fontFamily=Helvetica;html=1;whiteSpace=wrap;fillColor=#dae8fc;strokeColor=#6c8ebf;" vertex="1" parent="1">
          <mxGeometry x="460" y="560" width="80" height="40" as="geometry" />
        </mxCell>
        <mxCell id="qWAhWYrdUnWkXjUP7EAH-18" style="edgeStyle=orthogonalEdgeStyle;shape=connector;rounded=0;sketch=0;orthogonalLoop=1;jettySize=auto;html=1;exitX=0.5;exitY=0;exitDx=0;exitDy=0;entryX=0.25;entryY=1;entryDx=0;entryDy=0;labelBackgroundColor=default;strokeColor=#457B9D;fontFamily=Helvetica;fontSize=10;fontColor=#1D3557;startArrow=none;startFill=0;endArrow=block;endFill=0;startSize=9;endSize=8;fillColor=#A8DADC;" edge="1" parent="1" source="qWAhWYrdUnWkXjUP7EAH-15" target="qWAhWYrdUnWkXjUP7EAH-17">
          <mxGeometry relative="1" as="geometry">
            <Array as="points">
              <mxPoint x="320" y="750" />
              <mxPoint x="400" y="750" />
            </Array>
          </mxGeometry>
        </mxCell>
        <mxCell id="qWAhWYrdUnWkXjUP7EAH-15" value="&lt;p style=&quot;margin:0px;margin-top:4px;text-align:center;&quot;&gt;&lt;b&gt;Student&lt;/b&gt;&lt;/p&gt;&lt;hr size=&quot;1&quot;&gt;&lt;div style=&quot;height:2px;&quot;&gt;&lt;/div&gt;" style="verticalAlign=top;align=left;overflow=fill;fontSize=12;fontFamily=Helvetica;html=1;whiteSpace=wrap;fillColor=#dae8fc;strokeColor=#6c8ebf;" vertex="1" parent="1">
          <mxGeometry x="280" y="760" width="80" height="40" as="geometry" />
        </mxCell>
        <mxCell id="qWAhWYrdUnWkXjUP7EAH-19" style="edgeStyle=orthogonalEdgeStyle;shape=connector;rounded=0;sketch=0;orthogonalLoop=1;jettySize=auto;html=1;exitX=0.5;exitY=0;exitDx=0;exitDy=0;entryX=0.75;entryY=1;entryDx=0;entryDy=0;labelBackgroundColor=default;strokeColor=#457B9D;fontFamily=Helvetica;fontSize=10;fontColor=#1D3557;startArrow=none;startFill=0;endArrow=block;endFill=0;startSize=9;endSize=8;fillColor=#A8DADC;" edge="1" parent="1" source="qWAhWYrdUnWkXjUP7EAH-16" target="qWAhWYrdUnWkXjUP7EAH-17">
          <mxGeometry relative="1" as="geometry">
            <Array as="points">
              <mxPoint x="520" y="750" />
              <mxPoint x="440" y="750" />
            </Array>
          </mxGeometry>
        </mxCell>
        <mxCell id="qWAhWYrdUnWkXjUP7EAH-16" value="&lt;p style=&quot;margin:0px;margin-top:4px;text-align:center;&quot;&gt;&lt;b&gt;Teacher&lt;/b&gt;&lt;/p&gt;&lt;hr size=&quot;1&quot;&gt;&lt;div style=&quot;height:2px;&quot;&gt;&lt;/div&gt;" style="verticalAlign=top;align=left;overflow=fill;fontSize=12;fontFamily=Helvetica;html=1;whiteSpace=wrap;fillColor=#dae8fc;strokeColor=#6c8ebf;" vertex="1" parent="1">
          <mxGeometry x="480" y="760" width="80" height="40" as="geometry" />
        </mxCell>
        <mxCell id="qWAhWYrdUnWkXjUP7EAH-17" value="&lt;p style=&quot;margin:0px;margin-top:4px;text-align:center;&quot;&gt;&lt;b&gt;Human&lt;/b&gt;&lt;/p&gt;&lt;hr size=&quot;1&quot;&gt;&lt;div style=&quot;height:2px;&quot;&gt;&lt;/div&gt;" style="verticalAlign=top;align=left;overflow=fill;fontSize=12;fontFamily=Helvetica;html=1;whiteSpace=wrap;fillColor=#dae8fc;strokeColor=#6c8ebf;" vertex="1" parent="1">
          <mxGeometry x="380" y="690" width="80" height="40" as="geometry" />
        </mxCell>
        <mxCell id="qWAhWYrdUnWkXjUP7EAH-20" style="edgeStyle=orthogonalEdgeStyle;shape=connector;rounded=0;sketch=0;orthogonalLoop=1;jettySize=auto;html=1;exitX=0.5;exitY=0;exitDx=0;exitDy=0;entryX=0.25;entryY=1;entryDx=0;entryDy=0;labelBackgroundColor=default;strokeColor=#457B9D;fontFamily=Helvetica;fontSize=10;fontColor=#1D3557;startArrow=none;startFill=0;endArrow=block;endFill=0;startSize=9;endSize=8;fillColor=#A8DADC;dashed=1;" edge="1" parent="1" source="qWAhWYrdUnWkXjUP7EAH-21" target="qWAhWYrdUnWkXjUP7EAH-24">
          <mxGeometry relative="1" as="geometry">
            <Array as="points">
              <mxPoint x="320" y="950" />
              <mxPoint x="400" y="950" />
            </Array>
          </mxGeometry>
        </mxCell>
        <mxCell id="qWAhWYrdUnWkXjUP7EAH-21" value="&lt;p style=&quot;margin:0px;margin-top:4px;text-align:center;&quot;&gt;&lt;b&gt;Student&lt;/b&gt;&lt;/p&gt;&lt;hr size=&quot;1&quot;&gt;&lt;div style=&quot;height:2px;&quot;&gt;&lt;/div&gt;" style="verticalAlign=top;align=left;overflow=fill;fontSize=12;fontFamily=Helvetica;html=1;whiteSpace=wrap;fillColor=#dae8fc;strokeColor=#6c8ebf;" vertex="1" parent="1">
          <mxGeometry x="280" y="960" width="80" height="40" as="geometry" />
        </mxCell>
        <mxCell id="qWAhWYrdUnWkXjUP7EAH-22" style="edgeStyle=orthogonalEdgeStyle;shape=connector;rounded=0;sketch=0;orthogonalLoop=1;jettySize=auto;html=1;exitX=0.5;exitY=0;exitDx=0;exitDy=0;entryX=0.75;entryY=1;entryDx=0;entryDy=0;labelBackgroundColor=default;strokeColor=#457B9D;fontFamily=Helvetica;fontSize=10;fontColor=#1D3557;startArrow=none;startFill=0;endArrow=block;endFill=0;startSize=9;endSize=8;fillColor=#A8DADC;dashed=1;" edge="1" parent="1" source="qWAhWYrdUnWkXjUP7EAH-23" target="qWAhWYrdUnWkXjUP7EAH-24">
          <mxGeometry relative="1" as="geometry">
            <Array as="points">
              <mxPoint x="520" y="950" />
              <mxPoint x="440" y="950" />
            </Array>
          </mxGeometry>
        </mxCell>
        <mxCell id="qWAhWYrdUnWkXjUP7EAH-23" value="&lt;p style=&quot;margin:0px;margin-top:4px;text-align:center;&quot;&gt;&lt;b&gt;Teacher&lt;/b&gt;&lt;/p&gt;&lt;hr size=&quot;1&quot;&gt;&lt;div style=&quot;height:2px;&quot;&gt;&lt;/div&gt;" style="verticalAlign=top;align=left;overflow=fill;fontSize=12;fontFamily=Helvetica;html=1;whiteSpace=wrap;fillColor=#dae8fc;strokeColor=#6c8ebf;" vertex="1" parent="1">
          <mxGeometry x="480" y="960" width="80" height="40" as="geometry" />
        </mxCell>
        <mxCell id="qWAhWYrdUnWkXjUP7EAH-24" value="&lt;p style=&quot;margin:0px;margin-top:4px;text-align:center;&quot;&gt;&lt;b&gt;Walking&lt;/b&gt;&lt;/p&gt;&lt;hr size=&quot;1&quot;&gt;&lt;div style=&quot;height:2px;&quot;&gt;&lt;/div&gt;" style="verticalAlign=top;align=left;overflow=fill;fontSize=12;fontFamily=Helvetica;html=1;whiteSpace=wrap;fillColor=#d5e8d4;strokeColor=#82b366;" vertex="1" parent="1">
          <mxGeometry x="380" y="890" width="80" height="40" as="geometry" />
        </mxCell>
      </root>
    </mxGraphModel>
  </diagram>
</mxfile>
